<?xml version="1.0" encoding="UTF-8"?>
<svg id="logo-typo" xmlns="http://www.w3.org/2000/svg" viewBox="0 0 212.52 46.18">
  <defs>
    <style>
      .cls-1 {
        fill: #e2cf7c;
      }
    </style>
  </defs>
  <path class="cls-1" d="M20.94,46.18c-4.37,0-8.12-.84-11.26-2.52-3.14-1.68-5.54-4.05-7.2-7.11-1.66-3.06-2.49-6.65-2.49-10.75,0-3.06.48-5.84,1.43-8.34.95-2.5,2.33-4.65,4.14-6.44,1.81-1.79,4.01-3.16,6.61-4.12s5.52-1.43,8.76-1.43c1.72,0,3.5.2,5.35.59,1.85.39,3.48.98,4.9,1.76,1.04.56,1.77,1.27,2.18,2.13.41.86.55,1.74.42,2.63-.13.9-.46,1.7-.98,2.41-.52.71-1.2,1.19-2.02,1.43-.82.24-1.72.12-2.69-.36-1.12-.52-2.23-.92-3.33-1.2-1.1-.28-2.25-.42-3.44-.42-2.32,0-4.25.44-5.8,1.32-1.55.88-2.72,2.16-3.5,3.84s-1.18,3.75-1.18,6.22.39,4.55,1.18,6.25c.78,1.7,1.95,2.99,3.5,3.86,1.55.88,3.48,1.32,5.8,1.32.97,0,2.02-.12,3.14-.36,1.12-.24,2.22-.62,3.3-1.15,1.12-.48,2.12-.62,3-.39s1.59.67,2.13,1.34.89,1.45,1.04,2.32c.15.88.03,1.75-.36,2.6-.39.86-1.07,1.55-2.04,2.07-1.31.78-2.92,1.4-4.84,1.85-1.92.45-3.84.67-5.74.67Z"/>
  <path class="cls-1" d="M100.41,45.56c-1.75,0-3.09-.46-4-1.37-.92-.91-1.37-2.23-1.37-3.95V11.4c0-1.72.46-3.03,1.37-3.95s2.25-1.37,4-1.37h18.98c1.34,0,2.35.34,3.02,1.01.67.67,1.01,1.64,1.01,2.91s-.34,2.31-1.01,3c-.67.69-1.68,1.04-3.02,1.04h-12.5c-1.1,0-2,.9-2,2v3.5c0,1.1.9,2,2,2h11.27c1.31,0,2.3.34,3,1.01.69.67,1.04,1.66,1.04,2.97s-.35,2.3-1.04,2.97c-.69.67-1.69,1.01-3,1.01h-11.27c-1.1,0-2,.9-2,2v4.12c0,1.1.9,2,2,2h12.5c1.34,0,2.35.35,3.02,1.04.67.69,1.01,1.67,1.01,2.94s-.34,2.3-1.01,2.97-1.68,1.01-3.02,1.01h-18.98Z"/>
  <path class="cls-1" d="M141.34,45.56c-1.64,0-2.92-.46-3.84-1.37-.92-.91-1.37-2.19-1.37-3.84V11.23c0-1.68.45-2.97,1.34-3.86.9-.9,2.17-1.34,3.81-1.34s2.96.45,3.84,1.34c.88.9,1.32,2.18,1.32,3.86v23.76c0,1.1.9,2,2,2h11.66c1.42,0,2.51.36,3.28,1.09.76.73,1.15,1.78,1.15,3.16s-.38,2.45-1.15,3.19c-.77.75-1.86,1.12-3.28,1.12h-18.76Z"/>
  <path class="cls-1" d="M210.67,17.09l-.53-.51c-.39-.38-.62-.9-.62-1.45V3c0-1.65-1.35-3-3-3h-4c-1.65,0-3,1.35-3,3v2.27c0,.44-.53.67-.85.36l-2.06-1.97c-2.32-2.22-5.97-2.22-8.29,0l-14.05,13.43c-1.18,1.13-1.85,2.7-1.85,4.34v12.75c0,6.6,5.4,12,12,12h16.1c6.6,0,12-5.4,12-12v-12.75c0-1.64-.67-3.21-1.85-4.34ZM183.63,26.59c-.59-.3-.83-1.02-.52-1.61.3-.59,1.02-.83,1.61-.52,1.41.72,3.1.72,4.51,0,.59-.3,1.31-.07,1.61.52s.07,1.31-.52,1.61c-1.05.53-2.2.8-3.34.8s-2.3-.27-3.34-.8ZM196.81,33.66c-1.36.69-2.85,1.04-4.34,1.04s-2.98-.35-4.34-1.04c-.59-.3-.83-1.02-.52-1.61.3-.59,1.02-.82,1.61-.52,2.04,1.04,4.46,1.04,6.5,0,.59-.3,1.31-.07,1.61.52s.07,1.31-.52,1.61ZM201.32,26.59c-1.05.53-2.2.8-3.34.8s-2.3-.27-3.34-.8c-.59-.3-.83-1.02-.52-1.61.3-.59,1.02-.83,1.61-.52,1.41.72,3.1.72,4.51,0,.59-.3,1.31-.07,1.61.52s.07,1.31-.52,1.61Z"/>
  <path class="cls-1" d="M83.15,39.8l-7.97-17.16c-.49-1.06-1.77-1.46-2.8-.9-2.25,1.23-3.29,3.09-4.12,6.71-.16.72-1.19.73-1.35.01-1.15-5.06-2.71-6.7-7.43-7.95-.68-.18-.68-1.15,0-1.33,4.72-1.25,6.28-2.89,7.43-7.95.16-.71,1.19-.72,1.35,0,.82,3.6,1.85,5.47,4.07,6.7.28.15.59-.13.46-.42l-3.58-7.71c-.71-1.46-1.54-2.52-2.5-3.19-.95-.67-2.06-1.01-3.33-1.01s-2.4.34-3.38,1.01c-.99.67-1.83,1.73-2.5,3.19l-13.94,30.02c-.52,1.19-.69,2.26-.5,3.22.18.95.67,1.7,1.45,2.24.78.54,1.76.81,2.91.81,1.46,0,2.54-.34,3.25-1.01.71-.67,1.4-1.75,2.07-3.25l.77-1.82c.63-1.48,2.08-2.43,3.68-2.43h12.32c1.6,0,3.05.96,3.68,2.43l.77,1.82c.63,1.5,1.35,2.58,2.15,3.25.81.67,1.95,1.01,3.45,1.01,1.12,0,2.06-.26,2.83-.79.76-.52,1.23-1.26,1.39-2.24.17-.97-.04-2.05-.64-3.24ZM61,30.32c-2.26.6-3.07,1.36-3.63,3.63-.11.43-.72.43-.83,0-.57-2.27-1.38-3.03-3.63-3.63-.32-.09-.32-.55,0-.63,2.26-.6,3.07-1.36,3.63-3.63.11-.43.72-.43.83,0,.57,2.27,1.38,3.03,3.63,3.63.32.09.32.55,0,.63Z"/>
</svg>