<?xml version="1.0" encoding="UTF-8"?>
<svg id="logo" xmlns="http://www.w3.org/2000/svg" viewBox="0 0 100 100">
  <defs>
    <style>
      .cls-1 {
        fill: #15171c;
      }

      .cls-2 {
        fill: #e2cf7c;
      }
    </style>
  </defs>
  <path d="M79.69,64.2c-1.01.9-1.63,2.17-1.54,3.51.6,8.97-5.53,15.11-14.5,14.5-1.34-.09-2.61.53-3.51,1.54-5.88,6.6-14.4,6.6-20.28,0-.9-1.01-2.17-1.63-3.51-1.54-8.98.61-15.11-5.53-14.5-14.5.08-1.34-.53-2.61-1.54-3.51-6.6-5.88-6.6-14.4,0-20.28,1.01-.9,1.62-2.17,1.54-3.51-.61-8.97,5.52-15.11,14.5-14.5,1.34.09,2.61-.53,3.51-1.54,5.88-6.6,14.4-6.6,20.28,0,.15.17.32.34.5.48.84.72,1.9,1.13,3.01,1.06,2.6-.18,4.97.21,6.99,1.08,4.97,2.11,7.94,7.05,7.51,13.42-.09,1.34.53,2.61,1.54,3.51,6.6,5.88,6.6,14.4,0,20.28Z"/>
  <path class="cls-2" d="M70.64,14.3v9.82c0,.62-.6,1.07-1.19.9-1.44-.42-2.98-.64-4.6-.64-.42,0-.84.01-1.27.04h-.19c-.91,0-1.82-.44-2.5-1.2v-.02c-.17-.17-.25-.39-.25-.62v-8.27c0-1.65,1.35-3,3-3h4c1.65,0,3,1.35,3,3Z"/>
  <path class="cls-2" d="M79.69,64.2c-1.01.9-1.63,2.17-1.54,3.51.6,8.97-5.53,15.11-14.5,14.5-1.34-.09-2.61.53-3.51,1.54-5.88,6.6-14.4,6.6-20.28,0-.9-1.01-2.17-1.63-3.51-1.54-8.98.61-15.11-5.53-14.5-14.5.08-1.34-.53-2.61-1.54-3.51-6.6-5.88-6.6-14.4,0-20.28,1.01-.9,1.62-2.17,1.54-3.51-.61-8.97,5.52-15.11,14.5-14.5,1.34.09,2.61-.53,3.51-1.54,5.88-6.6,14.4-6.6,20.28,0,.15.17.32.34.5.48.84.72,1.9,1.13,3.01,1.06,2.6-.18,4.97.21,6.99,1.08,4.97,2.11,7.94,7.05,7.51,13.42-.09,1.34.53,2.61,1.54,3.51,6.6,5.88,6.6,14.4,0,20.28Z"/>
  <g>
    <g>
      <path class="cls-1" d="M35.83,57.07c-1.15,0-2.3-.27-3.34-.8-.59-.3-.83-1.02-.52-1.61.3-.59,1.02-.83,1.61-.52,1.41.72,3.1.72,4.51,0,.59-.3,1.31-.07,1.61.52s.07,1.31-.52,1.61c-1.05.53-2.2.8-3.34.8Z"/>
      <path class="cls-1" d="M46.83,57.07c-1.15,0-2.3-.27-3.34-.8-.59-.3-.83-1.02-.52-1.61.3-.59,1.02-.83,1.61-.52,1.41.72,3.1.72,4.51,0,.59-.3,1.31-.07,1.61.52s.07,1.31-.52,1.61c-1.05.53-2.2.8-3.34.8Z"/>
    </g>
    <path class="cls-1" d="M41.33,64.38c-1.49,0-2.98-.35-4.34-1.04-.59-.3-.83-1.02-.52-1.61.3-.59,1.02-.82,1.61-.52,2.04,1.04,4.46,1.04,6.5,0,.59-.3,1.31-.07,1.61.52s.07,1.31-.52,1.61c-1.36.69-2.85,1.04-4.34,1.04Z"/>
  </g>
</svg>